<svg width="24" height="24" viewBox="0 0 24 24" fill="none" xmlns="http://www.w3.org/2000/svg">
<g id="icons/arrow-right" clip-path="url(#clip0_799_10506)">
<path id="Union" fill-rule="evenodd" clip-rule="evenodd" d="M8.63637 6.07019C8.76632 6.43665 8.96911 6.77302 9.23252 7.05902L11.4783 9.30098L11.485 9.2942L14.1739 12.0004L11.4836 14.6636L11.4783 14.6582L10.4235 15.713L10.4234 15.7131L9.23254 16.9039C8.96968 17.1903 8.76724 17.5267 8.63733 17.8931C8.50741 18.2595 8.45268 18.6483 8.4764 19.0363V19.7735L8.70324 19.5467L8.75239 19.4975L12.5331 15.7168L12.5257 15.7094L16.2684 12.008L12.5295 8.24979L12.5331 8.24616L11.1162 6.82925L11.1115 6.82458L8.75237 4.46545L8.70321 4.4163L8.47637 4.18945V4.92669C8.45199 5.31475 8.50642 5.70372 8.63637 6.07019Z" fill="#051766"/>
</g>
<defs>
<clipPath id="clip0_799_10506">
<rect width="24" height="24" fill="white"/>
</clipPath>
</defs>
</svg>
