<svg width="24" height="24" viewBox="0 0 24 24" fill="none" xmlns="http://www.w3.org/2000/svg">
<g id="icons/arrow-left" clip-path="url(#clip0_799_10494)">
<path id="Union" fill-rule="evenodd" clip-rule="evenodd" d="M14.7675 7.09613C15.0303 6.80976 15.2328 6.47334 15.3627 6.10697C15.4926 5.7406 15.5473 5.3518 15.5236 4.9638V4.22656L15.2968 4.45341L15.2476 4.50255L11.4669 8.28327L11.4742 8.29061L7.73145 11.9921L11.4704 15.7503L11.4669 15.7539L12.8717 17.1588L12.8883 17.1755L12.8884 17.1754L15.2476 19.5346L15.2967 19.5838L15.5236 19.8106V19.0734C15.5479 18.6853 15.4935 18.2964 15.3636 17.9299C15.2336 17.5634 15.0308 17.2271 14.7674 16.9411L12.5217 14.6991L12.5149 14.7059L9.82596 11.9997L12.5163 9.33646L12.5217 9.34187L14.7675 7.09613Z" fill="#051766"/>
</g>
<defs>
<clipPath id="clip0_799_10494">
<rect width="24" height="24" fill="white"/>
</clipPath>
</defs>
</svg>
