<svg width="24" height="24" viewBox="0 0 24 24" fill="none" xmlns="http://www.w3.org/2000/svg">
<g id="icons/pagination-first">
<path id="Union" fill-rule="evenodd" clip-rule="evenodd" d="M12.6779 4.29356V4.29102H12.6805L12.6779 4.29356ZM12.6779 4.29356L4.9707 12.0262L12.6805 19.7105V18.9819C12.7033 18.5961 12.65 18.2127 12.5205 17.8497C12.3911 17.4867 12.1905 17.1541 11.9316 16.8698L7.04221 12.0185L11.9316 7.12918C12.1905 6.84739 12.3911 6.51484 12.5205 6.15182C12.6475 5.78879 12.7008 5.40293 12.6779 5.0196V4.29356ZM19.027 4.29865V4.29102L19.0321 4.29355L19.027 4.29865ZM19.027 4.29865L11.3223 12.0287L18.7579 19.4389L18.8061 19.4871L19.0295 19.7105V18.9819C19.0524 18.5961 18.9991 18.2127 18.8696 17.8497C18.7401 17.4867 18.5396 17.1541 18.2806 16.8698L13.3913 12.0185L18.2806 7.12918C18.5396 6.84739 18.7401 6.51484 18.8696 6.15182C18.9965 5.78879 19.0498 5.40293 19.027 5.0196V4.29865Z" fill="#051766"/>
</g>
</svg>
