<svg width="24" height="24" viewBox="0 0 24 24" fill="none" xmlns="http://www.w3.org/2000/svg">
<g id="icons/pagination-last">
<path id="Union" fill-rule="evenodd" clip-rule="evenodd" d="M11.322 4.29356V4.29102H11.3194L11.322 4.29356ZM11.322 4.29356V5.0196C11.2991 5.40293 11.3524 5.78879 11.4794 6.15182C11.6088 6.51484 11.8094 6.84739 12.0683 7.12918L16.9577 12.0185L12.0683 16.8698C11.8094 17.1541 11.6088 17.4867 11.4794 17.8497C11.3499 18.2127 11.2966 18.5961 11.3194 18.9819V19.7105L19.0292 12.0262L11.322 4.29356ZM4.97301 4.29867V4.29104L4.96793 4.29358L4.97301 4.29867ZM4.97301 4.29867V5.01962C4.95016 5.40295 5.00347 5.78882 5.1304 6.15184C5.25987 6.51486 5.46042 6.84742 5.71936 7.1292L10.6087 12.0186L5.71936 16.8698C5.46042 17.1542 5.25987 17.4867 5.1304 17.8497C5.00094 18.2128 4.94763 18.5961 4.97047 18.982V19.7105L5.19387 19.4871L5.2421 19.4389L12.6777 12.0287L4.97301 4.29867Z" fill="#051766"/>
</g>
</svg>
